<?xml version="1.0" encoding="utf-8"?>
<!-- Generator: Adobe Illustrator 24.1.2, SVG Export Plug-In . SVG Version: 6.00 Build 0)  -->
<svg version="1.1" id="Layer_1" xmlns="http://www.w3.org/2000/svg" xmlns:xlink="http://www.w3.org/1999/xlink" x="0px" y="0px"
	 viewBox="0 0 159.2 32" style="enable-background:new 0 0 159.2 32;" xml:space="preserve">
<style type="text/css">
	.st0{fill:#4A60E0;}
</style>
<g>
	<path class="st0" d="M40.3,12.3c-0.5-0.1-0.9-0.1-1.3-0.1c-1.7,0-2.9,0.4-3.8,1.1c-0.9,0.7-1.3,1.8-1.3,3.2c0,0.9,0.2,1.6,0.6,2.2
		c0.4,0.6,0.9,1.1,1.6,1.4c-0.5,0.3-0.9,0.6-1.2,0.9s-0.4,0.7-0.4,1.2c0,0.4,0.1,0.7,0.4,1.1s0.6,0.6,0.9,0.7
		c-0.9,0.2-1.6,0.6-2.1,1.1C33.2,25.7,33,26.3,33,27c0,1.1,0.5,2,1.4,2.6c0.9,0.6,2.3,0.9,4,0.9c2.3,0,4-0.4,5.3-1.2
		c1.2-0.8,1.8-1.9,1.8-3.4c0-1.1-0.4-2-1.1-2.6c-0.7-0.6-1.8-0.9-3.1-0.9h-2.1c-1.3,0-1.9-0.2-1.9-0.7c0-0.3,0.2-0.6,0.5-0.9
		l0.5,0.1l0.6,0c1.7,0,3-0.4,3.9-1.1c0.9-0.8,1.4-1.8,1.4-3.2c0-0.7-0.2-1.3-0.5-1.9l2-0.5v-1.7h-4.4C41.1,12.4,40.8,12.4,40.3,12.3
		z M38.1,25.2h1.8c0.9,0,1.5,0.1,1.9,0.3s0.6,0.5,0.6,1c0,0.6-0.3,1-1,1.4s-1.7,0.5-2.9,0.5c-0.8,0-1.5-0.1-1.9-0.4
		c-0.5-0.3-0.7-0.6-0.7-1.1c0-0.5,0.2-0.9,0.6-1.2C37,25.3,37.5,25.2,38.1,25.2z M40.5,18.2c-0.3,0.4-0.8,0.6-1.4,0.6
		c-0.6,0-1.1-0.2-1.4-0.6c-0.3-0.4-0.5-0.9-0.5-1.6c0-1.5,0.6-2.3,1.9-2.3c1.2,0,1.9,0.8,1.9,2.3C40.9,17.2,40.8,17.8,40.5,18.2z"/>
	<path class="st0" d="M52.5,12.9c-0.7,0.4-1.2,1-1.6,1.7h-0.2l-0.5-2.1h-2.6V25h3.4v-6.4c0-1,0.3-1.8,0.9-2.4
		c0.6-0.6,1.5-0.8,2.6-0.8c0.4,0,0.7,0,1,0.1l0.3-3.2c-0.3-0.1-0.7-0.1-1.2-0.1C53.9,12.2,53.2,12.4,52.5,12.9z"/>
	<path class="st0" d="M66.7,13c-0.9-0.5-2-0.8-3.2-0.8c-1.9,0-3.4,0.6-4.5,1.7c-1.1,1.1-1.6,2.7-1.6,4.8c0,1.3,0.2,2.5,0.7,3.5
		s1.2,1.7,2.1,2.3c0.9,0.5,2,0.8,3.2,0.8c1.9,0,3.4-0.6,4.5-1.7s1.6-2.8,1.6-4.8c0-1.3-0.2-2.5-0.7-3.4S67.6,13.5,66.7,13z
		 M65.4,21.5c-0.4,0.6-1.1,0.9-2,0.9c-0.9,0-1.6-0.3-2-1c-0.4-0.6-0.6-1.6-0.6-2.8c0-1.3,0.2-2.2,0.6-2.8c0.4-0.6,1.1-0.9,2-0.9
		c0.9,0,1.6,0.3,2,0.9s0.6,1.6,0.6,2.8C66,20,65.8,20.9,65.4,21.5z"/>
	<path class="st0" d="M80.5,18.4c0,1.5-0.2,2.5-0.6,3.2c-0.4,0.6-1.1,1-2.1,1c-0.7,0-1.2-0.2-1.5-0.7s-0.5-1.1-0.5-2v-7.3h-3.4v8.2
		c0,1.5,0.4,2.6,1.1,3.4s1.9,1.2,3.3,1.2c0.9,0,1.6-0.2,2.3-0.5s1.2-0.8,1.6-1.4h0.2l0.5,1.6h2.6V12.4h-3.4V18.4z"/>
	<path class="st0" d="M94.6,12.2c-0.9,0-1.6,0.2-2.3,0.5s-1.2,0.8-1.6,1.4h-0.2l-0.5-1.6h-2.6V25h3.4v-5.9c0-1.5,0.2-2.5,0.6-3.2
		c0.4-0.6,1.1-1,2.1-1c0.7,0,1.2,0.2,1.5,0.7s0.5,1.1,0.5,2V25h3.4v-8.2c0-1.5-0.4-2.6-1.1-3.4C97.2,12.6,96.1,12.2,94.6,12.2z"/>
	<path class="st0" d="M110.1,11.5c0,0.7,0.1,1.6,0.3,2.5h-0.1c-0.8-1.2-2-1.8-3.6-1.8c-1.5,0-2.7,0.6-3.5,1.7s-1.3,2.8-1.3,4.8
		c0,2,0.4,3.6,1.3,4.8c0.8,1.1,2,1.7,3.5,1.7c1.6,0,2.8-0.6,3.6-1.9h0.1l0.7,1.6h2.6V7.5h-3.4V11.5z M110.4,19.1
		c0,1.2-0.3,2.1-0.7,2.6c-0.4,0.5-1,0.8-1.9,0.8c-0.8,0-1.4-0.3-1.8-0.9c-0.4-0.6-0.6-1.5-0.6-2.8c0-1.2,0.2-2.2,0.6-2.8
		c0.4-0.6,1-1,1.8-1c0.9,0,1.6,0.3,2,0.9c0.4,0.6,0.6,1.6,0.6,2.9V19.1z"/>
	<path class="st0" d="M124.1,12.2c-1.6,0-2.8,0.6-3.6,1.9h-0.2l-0.5-1.6h-2.8v18.1h3.4v-5.1c0-0.2-0.1-0.8-0.2-1.8h0.2
		c0.8,1.1,2,1.6,3.5,1.6c1,0,1.8-0.3,2.6-0.8c0.7-0.5,1.3-1.3,1.7-2.3c0.4-1,0.6-2.2,0.6-3.5c0-2-0.4-3.6-1.3-4.8
		S125.6,12.2,124.1,12.2z M123.1,22.5c-0.9,0-1.5-0.3-1.9-0.9s-0.6-1.5-0.6-2.9v-0.4c0-1.2,0.2-2.1,0.6-2.6c0.4-0.5,1-0.8,1.9-0.8
		c0.8,0,1.4,0.3,1.8,0.9c0.4,0.6,0.6,1.5,0.6,2.8C125.4,21.2,124.6,22.5,123.1,22.5z"/>
	<path class="st0" d="M138.8,12.2c-0.9,0-1.6,0.2-2.3,0.5c-0.7,0.3-1.2,0.8-1.6,1.4h-0.2l-0.5-1.6h-2.6V25h3.4v-5.9
		c0-1.5,0.2-2.5,0.6-3.2c0.4-0.6,1.1-1,2.1-1c0.7,0,1.2,0.2,1.5,0.7s0.5,1.1,0.5,2V25h3.4v-8.2c0-1.5-0.4-2.6-1.1-3.4
		C141.4,12.6,140.3,12.2,138.8,12.2z"/>
	<path class="st0" d="M157.3,13.9c-0.8-1.1-2-1.7-3.5-1.7c-1.6,0-2.8,0.6-3.6,1.9h-0.2l-0.5-1.6h-2.8v18.1h3.4v-5.1
		c0-0.2-0.1-0.8-0.2-1.8h0.2c0.8,1.1,2,1.6,3.5,1.6c1,0,1.8-0.3,2.6-0.8c0.7-0.5,1.3-1.3,1.7-2.3c0.4-1,0.6-2.2,0.6-3.5
		C158.6,16.7,158.1,15.1,157.3,13.9z M152.8,22.5c-0.9,0-1.5-0.3-1.9-0.9c-0.4-0.6-0.6-1.5-0.6-2.9v-0.4c0-1.2,0.2-2.1,0.6-2.6
		c0.4-0.5,1-0.8,1.9-0.8c0.8,0,1.4,0.3,1.8,0.9c0.4,0.6,0.6,1.5,0.6,2.8C155.1,21.2,154.3,22.5,152.8,22.5z"/>
	<path class="st0" d="M0.7,24l6.9,7.4l6.2-7.3l5,7.2l9.5-7.2L14.5,0.7L0.7,24z M12.2,17.4l2.3-2.3l1.9,2.2L14,20.1L12.2,17.4z
		 M19.4,27.8l-3.9-5.6l4.2-4.9l-5.1-5.8l-5.7,5.7l3.4,4.9l-4.8,5.7l-3.7-4L14.5,5.6l10.5,18L19.4,27.8z"/>
</g>
</svg>
